<mxfile host="app.diagrams.net" modified="2023-10-14T22:38:26.023Z" agent="Mozilla/5.0 (Macintosh; Intel Mac OS X 10_15_7) AppleWebKit/537.36 (KHTML, like Gecko) Chrome/117.0.0.0 Safari/537.36" etag="gRKypdgSk1KKnu56XEIb" version="21.7.5" type="github">
  <diagram id="R2lEEEUBdFMjLlhIrx00" name="Page-1">
    <mxGraphModel dx="1354" dy="949" grid="0" gridSize="10" guides="1" tooltips="1" connect="1" arrows="1" fold="1" page="0" pageScale="1" pageWidth="850" pageHeight="1100" math="0" shadow="0" extFonts="Permanent Marker^https://fonts.googleapis.com/css?family=Permanent+Marker">
      <root>
        <mxCell id="0" />
        <mxCell id="1" parent="0" />
        <mxCell id="3GKI9lWFmnvysXcDFJsr-47" value="has" style="edgeStyle=orthogonalEdgeStyle;rounded=0;orthogonalLoop=1;jettySize=auto;html=1;entryX=0.488;entryY=0.964;entryDx=0;entryDy=0;entryPerimeter=0;startArrow=ERoneToMany;startFill=0;endArrow=ERoneToMany;endFill=0;" parent="1" source="C-vyLk0tnHw3VtMMgP7b-23" target="3GKI9lWFmnvysXcDFJsr-15" edge="1">
          <mxGeometry relative="1" as="geometry" />
        </mxCell>
        <mxCell id="C-vyLk0tnHw3VtMMgP7b-23" value="Student" style="shape=table;startSize=30;container=1;collapsible=1;childLayout=tableLayout;fixedRows=0;rowLines=0;fontStyle=1;align=center;resizeLast=1;columnLines=0;" parent="1" vertex="1">
          <mxGeometry x="-85" y="-126" width="286" height="112.75" as="geometry" />
        </mxCell>
        <mxCell id="BaDLSpwHCjFPU6KFAHDN-98" style="shape=partialRectangle;collapsible=0;dropTarget=0;pointerEvents=0;fillColor=none;points=[[0,0.5],[1,0.5]];portConstraint=eastwest;top=0;left=0;right=0;bottom=0;" parent="C-vyLk0tnHw3VtMMgP7b-23" vertex="1">
          <mxGeometry y="30" width="286" height="35" as="geometry" />
        </mxCell>
        <mxCell id="BaDLSpwHCjFPU6KFAHDN-99" value="StudentId" style="shape=partialRectangle;overflow=hidden;connectable=0;fillColor=none;top=0;left=0;bottom=0;right=0;fontStyle=4" parent="BaDLSpwHCjFPU6KFAHDN-98" vertex="1">
          <mxGeometry width="170" height="35" as="geometry">
            <mxRectangle width="170" height="35" as="alternateBounds" />
          </mxGeometry>
        </mxCell>
        <mxCell id="BaDLSpwHCjFPU6KFAHDN-100" value="id" style="shape=partialRectangle;overflow=hidden;connectable=0;fillColor=none;top=0;left=0;bottom=0;right=0;align=left;spacingLeft=6;" parent="BaDLSpwHCjFPU6KFAHDN-98" vertex="1">
          <mxGeometry x="170" width="116" height="35" as="geometry">
            <mxRectangle width="116" height="35" as="alternateBounds" />
          </mxGeometry>
        </mxCell>
        <mxCell id="C-vyLk0tnHw3VtMMgP7b-27" value="" style="shape=partialRectangle;collapsible=0;dropTarget=0;pointerEvents=0;fillColor=none;points=[[0,0.5],[1,0.5]];portConstraint=eastwest;top=0;left=0;right=0;bottom=0;" parent="C-vyLk0tnHw3VtMMgP7b-23" vertex="1">
          <mxGeometry y="65" width="286" height="20" as="geometry" />
        </mxCell>
        <mxCell id="C-vyLk0tnHw3VtMMgP7b-28" value="StudentName" style="shape=partialRectangle;overflow=hidden;connectable=0;fillColor=none;top=0;left=0;bottom=0;right=0;" parent="C-vyLk0tnHw3VtMMgP7b-27" vertex="1">
          <mxGeometry width="170" height="20" as="geometry">
            <mxRectangle width="170" height="20" as="alternateBounds" />
          </mxGeometry>
        </mxCell>
        <mxCell id="C-vyLk0tnHw3VtMMgP7b-29" value="person_name" style="shape=partialRectangle;overflow=hidden;connectable=0;fillColor=none;top=0;left=0;bottom=0;right=0;align=left;spacingLeft=6;" parent="C-vyLk0tnHw3VtMMgP7b-27" vertex="1">
          <mxGeometry x="170" width="116" height="20" as="geometry">
            <mxRectangle width="116" height="20" as="alternateBounds" />
          </mxGeometry>
        </mxCell>
        <mxCell id="3GKI9lWFmnvysXcDFJsr-8" style="shape=partialRectangle;collapsible=0;dropTarget=0;pointerEvents=0;fillColor=none;points=[[0,0.5],[1,0.5]];portConstraint=eastwest;top=0;left=0;right=0;bottom=0;" parent="C-vyLk0tnHw3VtMMgP7b-23" vertex="1">
          <mxGeometry y="85" width="286" height="28" as="geometry" />
        </mxCell>
        <mxCell id="3GKI9lWFmnvysXcDFJsr-9" value="GroupId" style="shape=partialRectangle;overflow=hidden;connectable=0;fillColor=none;top=0;left=0;bottom=0;right=0;" parent="3GKI9lWFmnvysXcDFJsr-8" vertex="1">
          <mxGeometry width="170" height="28" as="geometry">
            <mxRectangle width="170" height="28" as="alternateBounds" />
          </mxGeometry>
        </mxCell>
        <mxCell id="3GKI9lWFmnvysXcDFJsr-10" value="id" style="shape=partialRectangle;overflow=hidden;connectable=0;fillColor=none;top=0;left=0;bottom=0;right=0;align=left;spacingLeft=6;" parent="3GKI9lWFmnvysXcDFJsr-8" vertex="1">
          <mxGeometry x="170" width="116" height="28" as="geometry">
            <mxRectangle width="116" height="28" as="alternateBounds" />
          </mxGeometry>
        </mxCell>
        <mxCell id="BaDLSpwHCjFPU6KFAHDN-14" value="Discipline" style="shape=table;startSize=30;container=1;collapsible=1;childLayout=tableLayout;fixedRows=1;rowLines=0;fontStyle=1;align=center;resizeLast=1;strokeColor=default;perimeterSpacing=1;strokeWidth=1;swimlaneLine=1;columnLines=0;rounded=0;" parent="1" vertex="1">
          <mxGeometry x="420" y="440" width="330" height="183.00000000000057" as="geometry" />
        </mxCell>
        <mxCell id="BaDLSpwHCjFPU6KFAHDN-15" value="" style="shape=partialRectangle;collapsible=0;dropTarget=0;pointerEvents=0;fillColor=none;points=[[0,0.5],[1,0.5]];portConstraint=eastwest;top=0;left=0;right=0;bottom=0;strokeColor=inherit;" parent="BaDLSpwHCjFPU6KFAHDN-14" vertex="1">
          <mxGeometry y="30" width="330" height="48" as="geometry" />
        </mxCell>
        <mxCell id="BaDLSpwHCjFPU6KFAHDN-16" value="DisciplineId" style="shape=partialRectangle;overflow=hidden;connectable=0;fillColor=none;top=0;left=0;bottom=0;right=0;fontStyle=4;strokeColor=inherit;strokeWidth=0;" parent="BaDLSpwHCjFPU6KFAHDN-15" vertex="1">
          <mxGeometry width="170" height="48" as="geometry">
            <mxRectangle width="170" height="48" as="alternateBounds" />
          </mxGeometry>
        </mxCell>
        <mxCell id="BaDLSpwHCjFPU6KFAHDN-17" value="id" style="shape=partialRectangle;overflow=hidden;connectable=0;fillColor=none;top=0;left=0;bottom=0;right=0;align=left;spacingLeft=6;fontStyle=0;strokeColor=inherit;" parent="BaDLSpwHCjFPU6KFAHDN-15" vertex="1">
          <mxGeometry x="170" width="120" height="48" as="geometry">
            <mxRectangle width="120" height="48" as="alternateBounds" />
          </mxGeometry>
        </mxCell>
        <mxCell id="BaDLSpwHCjFPU6KFAHDN-108" style="shape=partialRectangle;overflow=hidden;connectable=0;fillColor=none;top=0;left=0;bottom=0;right=0;align=left;spacingLeft=6;fontStyle=0;strokeColor=inherit;" parent="BaDLSpwHCjFPU6KFAHDN-15" vertex="1">
          <mxGeometry x="290" width="40" height="48" as="geometry">
            <mxRectangle width="40" height="48" as="alternateBounds" />
          </mxGeometry>
        </mxCell>
        <mxCell id="BaDLSpwHCjFPU6KFAHDN-18" value="" style="shape=partialRectangle;collapsible=0;dropTarget=0;pointerEvents=0;fillColor=none;points=[[0,0.5],[1,0.5]];portConstraint=eastwest;top=0;left=0;right=0;bottom=0;" parent="BaDLSpwHCjFPU6KFAHDN-14" vertex="1">
          <mxGeometry y="78" width="330" height="35" as="geometry" />
        </mxCell>
        <mxCell id="BaDLSpwHCjFPU6KFAHDN-19" value="DisciplineName" style="shape=partialRectangle;overflow=hidden;connectable=0;fillColor=none;top=0;left=0;bottom=0;right=0;strokeColor=inherit;" parent="BaDLSpwHCjFPU6KFAHDN-18" vertex="1">
          <mxGeometry width="170" height="35" as="geometry">
            <mxRectangle width="170" height="35" as="alternateBounds" />
          </mxGeometry>
        </mxCell>
        <mxCell id="BaDLSpwHCjFPU6KFAHDN-20" value="discipline_name" style="shape=partialRectangle;overflow=hidden;connectable=0;fillColor=none;top=0;left=0;bottom=0;right=0;align=left;spacingLeft=6;perimeterSpacing=4;strokeColor=default;strokeWidth=0;" parent="BaDLSpwHCjFPU6KFAHDN-18" vertex="1">
          <mxGeometry x="170" width="120" height="35" as="geometry">
            <mxRectangle width="120" height="35" as="alternateBounds" />
          </mxGeometry>
        </mxCell>
        <mxCell id="BaDLSpwHCjFPU6KFAHDN-109" value="K1" style="shape=partialRectangle;overflow=hidden;connectable=0;fillColor=none;top=0;left=0;bottom=0;right=0;align=left;spacingLeft=6;perimeterSpacing=4;strokeColor=default;strokeWidth=0;" parent="BaDLSpwHCjFPU6KFAHDN-18" vertex="1">
          <mxGeometry x="290" width="40" height="35" as="geometry">
            <mxRectangle width="40" height="35" as="alternateBounds" />
          </mxGeometry>
        </mxCell>
        <mxCell id="BaDLSpwHCjFPU6KFAHDN-105" style="shape=partialRectangle;collapsible=0;dropTarget=0;pointerEvents=0;fillColor=none;points=[[0,0.5],[1,0.5]];portConstraint=eastwest;top=0;left=0;right=0;bottom=0;" parent="BaDLSpwHCjFPU6KFAHDN-14" vertex="1">
          <mxGeometry y="113" width="330" height="35" as="geometry" />
        </mxCell>
        <mxCell id="BaDLSpwHCjFPU6KFAHDN-106" value="Hours" style="shape=partialRectangle;overflow=hidden;connectable=0;fillColor=none;top=0;left=0;bottom=0;right=0;strokeColor=inherit;" parent="BaDLSpwHCjFPU6KFAHDN-105" vertex="1">
          <mxGeometry width="170" height="35" as="geometry">
            <mxRectangle width="170" height="35" as="alternateBounds" />
          </mxGeometry>
        </mxCell>
        <mxCell id="BaDLSpwHCjFPU6KFAHDN-107" value="discipline_hours" style="shape=partialRectangle;overflow=hidden;connectable=0;fillColor=none;top=0;left=0;bottom=0;right=0;align=left;spacingLeft=6;perimeterSpacing=4;strokeColor=default;strokeWidth=0;" parent="BaDLSpwHCjFPU6KFAHDN-105" vertex="1">
          <mxGeometry x="170" width="120" height="35" as="geometry">
            <mxRectangle width="120" height="35" as="alternateBounds" />
          </mxGeometry>
        </mxCell>
        <mxCell id="BaDLSpwHCjFPU6KFAHDN-110" style="shape=partialRectangle;overflow=hidden;connectable=0;fillColor=none;top=0;left=0;bottom=0;right=0;align=left;spacingLeft=6;perimeterSpacing=4;strokeColor=default;strokeWidth=0;" parent="BaDLSpwHCjFPU6KFAHDN-105" vertex="1">
          <mxGeometry x="290" width="40" height="35" as="geometry">
            <mxRectangle width="40" height="35" as="alternateBounds" />
          </mxGeometry>
        </mxCell>
        <mxCell id="BaDLSpwHCjFPU6KFAHDN-137" style="shape=partialRectangle;collapsible=0;dropTarget=0;pointerEvents=0;fillColor=none;points=[[0,0.5],[1,0.5]];portConstraint=eastwest;top=0;left=0;right=0;bottom=0;" parent="BaDLSpwHCjFPU6KFAHDN-14" vertex="1">
          <mxGeometry y="148" width="330" height="35" as="geometry" />
        </mxCell>
        <mxCell id="BaDLSpwHCjFPU6KFAHDN-138" value="Aim" style="shape=partialRectangle;overflow=hidden;connectable=0;fillColor=none;top=0;left=0;bottom=0;right=0;strokeColor=inherit;" parent="BaDLSpwHCjFPU6KFAHDN-137" vertex="1">
          <mxGeometry width="170" height="35" as="geometry">
            <mxRectangle width="170" height="35" as="alternateBounds" />
          </mxGeometry>
        </mxCell>
        <mxCell id="BaDLSpwHCjFPU6KFAHDN-139" value="discipline_text" style="shape=partialRectangle;overflow=hidden;connectable=0;fillColor=none;top=0;left=0;bottom=0;right=0;align=left;spacingLeft=6;perimeterSpacing=4;strokeColor=default;strokeWidth=0;" parent="BaDLSpwHCjFPU6KFAHDN-137" vertex="1">
          <mxGeometry x="170" width="120" height="35" as="geometry">
            <mxRectangle width="120" height="35" as="alternateBounds" />
          </mxGeometry>
        </mxCell>
        <mxCell id="BaDLSpwHCjFPU6KFAHDN-140" style="shape=partialRectangle;overflow=hidden;connectable=0;fillColor=none;top=0;left=0;bottom=0;right=0;align=left;spacingLeft=6;perimeterSpacing=4;strokeColor=default;strokeWidth=0;" parent="BaDLSpwHCjFPU6KFAHDN-137" vertex="1">
          <mxGeometry x="290" width="40" height="35" as="geometry">
            <mxRectangle width="40" height="35" as="alternateBounds" />
          </mxGeometry>
        </mxCell>
        <mxCell id="3GKI9lWFmnvysXcDFJsr-48" style="edgeStyle=orthogonalEdgeStyle;rounded=0;orthogonalLoop=1;jettySize=auto;html=1;entryX=0.302;entryY=0.011;entryDx=0;entryDy=0;entryPerimeter=0;startArrow=ERone;startFill=0;endArrow=ERoneToMany;endFill=0;exitX=0.418;exitY=1;exitDx=0;exitDy=0;exitPerimeter=0;" parent="1" source="3GKI9lWFmnvysXcDFJsr-5" target="3GKI9lWFmnvysXcDFJsr-34" edge="1">
          <mxGeometry relative="1" as="geometry" />
        </mxCell>
        <mxCell id="3GKI9lWFmnvysXcDFJsr-50" value="teaches" style="edgeLabel;html=1;align=center;verticalAlign=middle;resizable=0;points=[];" parent="3GKI9lWFmnvysXcDFJsr-48" vertex="1" connectable="0">
          <mxGeometry x="0.0724" y="1" relative="1" as="geometry">
            <mxPoint as="offset" />
          </mxGeometry>
        </mxCell>
        <mxCell id="3GKI9lWFmnvysXcDFJsr-1" value="Lecturer" style="shape=table;startSize=30;container=1;collapsible=1;childLayout=tableLayout;fixedRows=0;rowLines=0;fontStyle=1;align=center;resizeLast=1;columnLines=0;" parent="1" vertex="1">
          <mxGeometry x="235" y="-312" width="275" height="90" as="geometry" />
        </mxCell>
        <mxCell id="3GKI9lWFmnvysXcDFJsr-2" style="shape=partialRectangle;collapsible=0;dropTarget=0;pointerEvents=0;fillColor=none;points=[[0,0.5],[1,0.5]];portConstraint=eastwest;top=0;left=0;right=0;bottom=0;" parent="3GKI9lWFmnvysXcDFJsr-1" vertex="1">
          <mxGeometry y="30" width="275" height="32" as="geometry" />
        </mxCell>
        <mxCell id="3GKI9lWFmnvysXcDFJsr-3" value="LecturerId" style="shape=partialRectangle;overflow=hidden;connectable=0;fillColor=none;top=0;left=0;bottom=0;right=0;fontStyle=4" parent="3GKI9lWFmnvysXcDFJsr-2" vertex="1">
          <mxGeometry width="170" height="32" as="geometry">
            <mxRectangle width="170" height="32" as="alternateBounds" />
          </mxGeometry>
        </mxCell>
        <mxCell id="3GKI9lWFmnvysXcDFJsr-4" value="id" style="shape=partialRectangle;overflow=hidden;connectable=0;fillColor=none;top=0;left=0;bottom=0;right=0;align=left;spacingLeft=6;" parent="3GKI9lWFmnvysXcDFJsr-2" vertex="1">
          <mxGeometry x="170" width="105" height="32" as="geometry">
            <mxRectangle width="105" height="32" as="alternateBounds" />
          </mxGeometry>
        </mxCell>
        <mxCell id="3GKI9lWFmnvysXcDFJsr-5" value="" style="shape=partialRectangle;collapsible=0;dropTarget=0;pointerEvents=0;fillColor=none;points=[[0,0.5],[1,0.5]];portConstraint=eastwest;top=0;left=0;right=0;bottom=0;" parent="3GKI9lWFmnvysXcDFJsr-1" vertex="1">
          <mxGeometry y="62" width="275" height="28" as="geometry" />
        </mxCell>
        <mxCell id="3GKI9lWFmnvysXcDFJsr-6" value="LecturerName" style="shape=partialRectangle;overflow=hidden;connectable=0;fillColor=none;top=0;left=0;bottom=0;right=0;" parent="3GKI9lWFmnvysXcDFJsr-5" vertex="1">
          <mxGeometry width="170" height="28" as="geometry">
            <mxRectangle width="170" height="28" as="alternateBounds" />
          </mxGeometry>
        </mxCell>
        <mxCell id="3GKI9lWFmnvysXcDFJsr-7" value="person_name" style="shape=partialRectangle;overflow=hidden;connectable=0;fillColor=none;top=0;left=0;bottom=0;right=0;align=left;spacingLeft=6;" parent="3GKI9lWFmnvysXcDFJsr-5" vertex="1">
          <mxGeometry x="170" width="105" height="28" as="geometry">
            <mxRectangle width="105" height="28" as="alternateBounds" />
          </mxGeometry>
        </mxCell>
        <mxCell id="3GKI9lWFmnvysXcDFJsr-11" value="Group" style="shape=table;startSize=30;container=1;collapsible=1;childLayout=tableLayout;fixedRows=0;rowLines=0;fontStyle=1;align=center;resizeLast=1;columnLines=0;" parent="1" vertex="1">
          <mxGeometry x="-104" y="-369" width="330" height="90.00000000000023" as="geometry" />
        </mxCell>
        <mxCell id="3GKI9lWFmnvysXcDFJsr-12" style="shape=partialRectangle;collapsible=0;dropTarget=0;pointerEvents=0;fillColor=none;points=[[0,0.5],[1,0.5]];portConstraint=eastwest;top=0;left=0;right=0;bottom=0;" parent="3GKI9lWFmnvysXcDFJsr-11" vertex="1">
          <mxGeometry y="30" width="330" height="32" as="geometry" />
        </mxCell>
        <mxCell id="3GKI9lWFmnvysXcDFJsr-13" value="GroupId" style="shape=partialRectangle;overflow=hidden;connectable=0;fillColor=none;top=0;left=0;bottom=0;right=0;fontStyle=4" parent="3GKI9lWFmnvysXcDFJsr-12" vertex="1">
          <mxGeometry width="170" height="32" as="geometry">
            <mxRectangle width="170" height="32" as="alternateBounds" />
          </mxGeometry>
        </mxCell>
        <mxCell id="3GKI9lWFmnvysXcDFJsr-14" value="id" style="shape=partialRectangle;overflow=hidden;connectable=0;fillColor=none;top=0;left=0;bottom=0;right=0;align=left;spacingLeft=6;" parent="3GKI9lWFmnvysXcDFJsr-12" vertex="1">
          <mxGeometry x="170" width="80" height="32" as="geometry">
            <mxRectangle width="80" height="32" as="alternateBounds" />
          </mxGeometry>
        </mxCell>
        <mxCell id="3GKI9lWFmnvysXcDFJsr-18" style="shape=partialRectangle;overflow=hidden;connectable=0;fillColor=none;top=0;left=0;bottom=0;right=0;align=left;spacingLeft=6;" parent="3GKI9lWFmnvysXcDFJsr-12" vertex="1">
          <mxGeometry x="250" width="80" height="32" as="geometry">
            <mxRectangle width="80" height="32" as="alternateBounds" />
          </mxGeometry>
        </mxCell>
        <mxCell id="3GKI9lWFmnvysXcDFJsr-15" value="" style="shape=partialRectangle;collapsible=0;dropTarget=0;pointerEvents=0;fillColor=none;points=[[0,0.5],[1,0.5]];portConstraint=eastwest;top=0;left=0;right=0;bottom=0;" parent="3GKI9lWFmnvysXcDFJsr-11" vertex="1">
          <mxGeometry y="62" width="330" height="28" as="geometry" />
        </mxCell>
        <mxCell id="3GKI9lWFmnvysXcDFJsr-16" value="GroupName" style="shape=partialRectangle;overflow=hidden;connectable=0;fillColor=none;top=0;left=0;bottom=0;right=0;" parent="3GKI9lWFmnvysXcDFJsr-15" vertex="1">
          <mxGeometry width="170" height="28" as="geometry">
            <mxRectangle width="170" height="28" as="alternateBounds" />
          </mxGeometry>
        </mxCell>
        <mxCell id="3GKI9lWFmnvysXcDFJsr-17" value="group_name" style="shape=partialRectangle;overflow=hidden;connectable=0;fillColor=none;top=0;left=0;bottom=0;right=0;align=left;spacingLeft=6;" parent="3GKI9lWFmnvysXcDFJsr-15" vertex="1">
          <mxGeometry x="170" width="80" height="28" as="geometry">
            <mxRectangle width="80" height="28" as="alternateBounds" />
          </mxGeometry>
        </mxCell>
        <mxCell id="3GKI9lWFmnvysXcDFJsr-19" value="K1" style="shape=partialRectangle;overflow=hidden;connectable=0;fillColor=none;top=0;left=0;bottom=0;right=0;align=left;spacingLeft=6;" parent="3GKI9lWFmnvysXcDFJsr-15" vertex="1">
          <mxGeometry x="250" width="80" height="28" as="geometry">
            <mxRectangle width="80" height="28" as="alternateBounds" />
          </mxGeometry>
        </mxCell>
        <mxCell id="3GKI9lWFmnvysXcDFJsr-52" style="edgeStyle=orthogonalEdgeStyle;rounded=0;orthogonalLoop=1;jettySize=auto;html=1;entryX=0.427;entryY=0.971;entryDx=0;entryDy=0;entryPerimeter=0;startArrow=ERmany;startFill=0;endArrow=ERoneToMany;endFill=0;" parent="1" source="3GKI9lWFmnvysXcDFJsr-20" target="3GKI9lWFmnvysXcDFJsr-44" edge="1">
          <mxGeometry relative="1" as="geometry" />
        </mxCell>
        <mxCell id="3GKI9lWFmnvysXcDFJsr-20" value="Course" style="shape=table;startSize=30;container=1;collapsible=1;childLayout=tableLayout;fixedRows=1;rowLines=0;fontStyle=1;align=center;resizeLast=1;strokeColor=default;perimeterSpacing=1;strokeWidth=1;swimlaneLine=1;columnLines=0;rounded=0;" parent="1" vertex="1">
          <mxGeometry x="294" y="91" width="260" height="105" as="geometry" />
        </mxCell>
        <mxCell id="3GKI9lWFmnvysXcDFJsr-21" style="shape=partialRectangle;collapsible=0;dropTarget=0;pointerEvents=0;fillColor=none;points=[[0,0.5],[1,0.5]];portConstraint=eastwest;top=0;left=0;right=0;bottom=0;" parent="3GKI9lWFmnvysXcDFJsr-20" vertex="1">
          <mxGeometry y="30" width="260" height="40" as="geometry" />
        </mxCell>
        <mxCell id="3GKI9lWFmnvysXcDFJsr-22" value="CourseId" style="shape=partialRectangle;overflow=hidden;connectable=0;fillColor=none;top=0;left=0;bottom=0;right=0;strokeColor=inherit;fontStyle=4" parent="3GKI9lWFmnvysXcDFJsr-21" vertex="1">
          <mxGeometry width="170" height="40" as="geometry">
            <mxRectangle width="170" height="40" as="alternateBounds" />
          </mxGeometry>
        </mxCell>
        <mxCell id="3GKI9lWFmnvysXcDFJsr-23" value="id" style="shape=partialRectangle;overflow=hidden;connectable=0;fillColor=none;top=0;left=0;bottom=0;right=0;align=left;spacingLeft=6;perimeterSpacing=4;strokeColor=default;strokeWidth=0;" parent="3GKI9lWFmnvysXcDFJsr-21" vertex="1">
          <mxGeometry x="170" width="90" height="40" as="geometry">
            <mxRectangle width="90" height="40" as="alternateBounds" />
          </mxGeometry>
        </mxCell>
        <mxCell id="3GKI9lWFmnvysXcDFJsr-24" value="" style="shape=partialRectangle;collapsible=0;dropTarget=0;pointerEvents=0;fillColor=none;points=[[0,0.5],[1,0.5]];portConstraint=eastwest;top=0;left=0;right=0;bottom=0;" parent="3GKI9lWFmnvysXcDFJsr-20" vertex="1">
          <mxGeometry y="70" width="260" height="35" as="geometry" />
        </mxCell>
        <mxCell id="3GKI9lWFmnvysXcDFJsr-25" value="CourseName" style="shape=partialRectangle;overflow=hidden;connectable=0;fillColor=none;top=0;left=0;bottom=0;right=0;strokeColor=inherit;" parent="3GKI9lWFmnvysXcDFJsr-24" vertex="1">
          <mxGeometry width="170" height="35" as="geometry">
            <mxRectangle width="170" height="35" as="alternateBounds" />
          </mxGeometry>
        </mxCell>
        <mxCell id="3GKI9lWFmnvysXcDFJsr-26" value="course_name" style="shape=partialRectangle;overflow=hidden;connectable=0;fillColor=none;top=0;left=0;bottom=0;right=0;align=left;spacingLeft=6;perimeterSpacing=4;strokeColor=default;strokeWidth=0;" parent="3GKI9lWFmnvysXcDFJsr-24" vertex="1">
          <mxGeometry x="170" width="90" height="35" as="geometry">
            <mxRectangle width="90" height="35" as="alternateBounds" />
          </mxGeometry>
        </mxCell>
        <mxCell id="3GKI9lWFmnvysXcDFJsr-34" value="CourseDelivery" style="shape=table;startSize=30;container=1;collapsible=1;childLayout=tableLayout;fixedRows=1;rowLines=0;fontStyle=1;align=center;resizeLast=1;strokeColor=default;perimeterSpacing=1;strokeWidth=1;swimlaneLine=1;columnLines=0;rounded=0;" parent="1" vertex="1">
          <mxGeometry x="294" y="-149" width="290.75" height="175" as="geometry" />
        </mxCell>
        <mxCell id="3GKI9lWFmnvysXcDFJsr-35" style="shape=partialRectangle;collapsible=0;dropTarget=0;pointerEvents=0;fillColor=none;points=[[0,0.5],[1,0.5]];portConstraint=eastwest;top=0;left=0;right=0;bottom=0;" parent="3GKI9lWFmnvysXcDFJsr-34" vertex="1">
          <mxGeometry y="30" width="290.75" height="40" as="geometry" />
        </mxCell>
        <mxCell id="3GKI9lWFmnvysXcDFJsr-36" value="CourseId" style="shape=partialRectangle;overflow=hidden;connectable=0;fillColor=none;top=0;left=0;bottom=0;right=0;strokeColor=inherit;fontStyle=4" parent="3GKI9lWFmnvysXcDFJsr-35" vertex="1">
          <mxGeometry width="170" height="40" as="geometry">
            <mxRectangle width="170" height="40" as="alternateBounds" />
          </mxGeometry>
        </mxCell>
        <mxCell id="3GKI9lWFmnvysXcDFJsr-37" value="id" style="shape=partialRectangle;overflow=hidden;connectable=0;fillColor=none;top=0;left=0;bottom=0;right=0;align=left;spacingLeft=6;perimeterSpacing=4;strokeColor=default;strokeWidth=0;" parent="3GKI9lWFmnvysXcDFJsr-35" vertex="1">
          <mxGeometry x="170" width="90" height="40" as="geometry">
            <mxRectangle width="90" height="40" as="alternateBounds" />
          </mxGeometry>
        </mxCell>
        <mxCell id="eQEU4PPi6ts09ibyv7uh-1" style="shape=partialRectangle;overflow=hidden;connectable=0;fillColor=none;top=0;left=0;bottom=0;right=0;align=left;spacingLeft=6;perimeterSpacing=4;strokeColor=default;strokeWidth=0;" vertex="1" parent="3GKI9lWFmnvysXcDFJsr-35">
          <mxGeometry x="260" width="30.75" height="40" as="geometry">
            <mxRectangle width="30.75" height="40" as="alternateBounds" />
          </mxGeometry>
        </mxCell>
        <mxCell id="3GKI9lWFmnvysXcDFJsr-38" value="" style="shape=partialRectangle;collapsible=0;dropTarget=0;pointerEvents=0;fillColor=none;points=[[0,0.5],[1,0.5]];portConstraint=eastwest;top=0;left=0;right=0;bottom=0;" parent="3GKI9lWFmnvysXcDFJsr-34" vertex="1">
          <mxGeometry y="70" width="290.75" height="35" as="geometry" />
        </mxCell>
        <mxCell id="3GKI9lWFmnvysXcDFJsr-39" value="LecturerId" style="shape=partialRectangle;overflow=hidden;connectable=0;fillColor=none;top=0;left=0;bottom=0;right=0;strokeColor=inherit;fontStyle=4" parent="3GKI9lWFmnvysXcDFJsr-38" vertex="1">
          <mxGeometry width="170" height="35" as="geometry">
            <mxRectangle width="170" height="35" as="alternateBounds" />
          </mxGeometry>
        </mxCell>
        <mxCell id="3GKI9lWFmnvysXcDFJsr-40" value="id" style="shape=partialRectangle;overflow=hidden;connectable=0;fillColor=none;top=0;left=0;bottom=0;right=0;align=left;spacingLeft=6;perimeterSpacing=4;strokeColor=default;strokeWidth=0;" parent="3GKI9lWFmnvysXcDFJsr-38" vertex="1">
          <mxGeometry x="170" width="90" height="35" as="geometry">
            <mxRectangle width="90" height="35" as="alternateBounds" />
          </mxGeometry>
        </mxCell>
        <mxCell id="eQEU4PPi6ts09ibyv7uh-2" style="shape=partialRectangle;overflow=hidden;connectable=0;fillColor=none;top=0;left=0;bottom=0;right=0;align=left;spacingLeft=6;perimeterSpacing=4;strokeColor=default;strokeWidth=0;" vertex="1" parent="3GKI9lWFmnvysXcDFJsr-38">
          <mxGeometry x="260" width="30.75" height="35" as="geometry">
            <mxRectangle width="30.75" height="35" as="alternateBounds" />
          </mxGeometry>
        </mxCell>
        <mxCell id="3GKI9lWFmnvysXcDFJsr-41" style="shape=partialRectangle;collapsible=0;dropTarget=0;pointerEvents=0;fillColor=none;points=[[0,0.5],[1,0.5]];portConstraint=eastwest;top=0;left=0;right=0;bottom=0;" parent="3GKI9lWFmnvysXcDFJsr-34" vertex="1">
          <mxGeometry y="105" width="290.75" height="35" as="geometry" />
        </mxCell>
        <mxCell id="3GKI9lWFmnvysXcDFJsr-42" value="StudentId" style="shape=partialRectangle;overflow=hidden;connectable=0;fillColor=none;top=0;left=0;bottom=0;right=0;strokeColor=inherit;fontStyle=4" parent="3GKI9lWFmnvysXcDFJsr-41" vertex="1">
          <mxGeometry width="170" height="35" as="geometry">
            <mxRectangle width="170" height="35" as="alternateBounds" />
          </mxGeometry>
        </mxCell>
        <mxCell id="3GKI9lWFmnvysXcDFJsr-43" value="id" style="shape=partialRectangle;overflow=hidden;connectable=0;fillColor=none;top=0;left=0;bottom=0;right=0;align=left;spacingLeft=6;perimeterSpacing=4;strokeColor=default;strokeWidth=0;" parent="3GKI9lWFmnvysXcDFJsr-41" vertex="1">
          <mxGeometry x="170" width="90" height="35" as="geometry">
            <mxRectangle width="90" height="35" as="alternateBounds" />
          </mxGeometry>
        </mxCell>
        <mxCell id="eQEU4PPi6ts09ibyv7uh-3" style="shape=partialRectangle;overflow=hidden;connectable=0;fillColor=none;top=0;left=0;bottom=0;right=0;align=left;spacingLeft=6;perimeterSpacing=4;strokeColor=default;strokeWidth=0;" vertex="1" parent="3GKI9lWFmnvysXcDFJsr-41">
          <mxGeometry x="260" width="30.75" height="35" as="geometry">
            <mxRectangle width="30.75" height="35" as="alternateBounds" />
          </mxGeometry>
        </mxCell>
        <mxCell id="3GKI9lWFmnvysXcDFJsr-44" style="shape=partialRectangle;collapsible=0;dropTarget=0;pointerEvents=0;fillColor=none;points=[[0,0.5],[1,0.5]];portConstraint=eastwest;top=0;left=0;right=0;bottom=0;" parent="3GKI9lWFmnvysXcDFJsr-34" vertex="1">
          <mxGeometry y="140" width="290.75" height="35" as="geometry" />
        </mxCell>
        <mxCell id="3GKI9lWFmnvysXcDFJsr-45" value="Mark" style="shape=partialRectangle;overflow=hidden;connectable=0;fillColor=none;top=0;left=0;bottom=0;right=0;strokeColor=inherit;fontStyle=0" parent="3GKI9lWFmnvysXcDFJsr-44" vertex="1">
          <mxGeometry width="170" height="35" as="geometry">
            <mxRectangle width="170" height="35" as="alternateBounds" />
          </mxGeometry>
        </mxCell>
        <mxCell id="3GKI9lWFmnvysXcDFJsr-46" value="mark" style="shape=partialRectangle;overflow=hidden;connectable=0;fillColor=none;top=0;left=0;bottom=0;right=0;align=left;spacingLeft=6;perimeterSpacing=4;strokeColor=default;strokeWidth=0;" parent="3GKI9lWFmnvysXcDFJsr-44" vertex="1">
          <mxGeometry x="170" width="90" height="35" as="geometry">
            <mxRectangle width="90" height="35" as="alternateBounds" />
          </mxGeometry>
        </mxCell>
        <mxCell id="eQEU4PPi6ts09ibyv7uh-4" value="O" style="shape=partialRectangle;overflow=hidden;connectable=0;fillColor=none;top=0;left=0;bottom=0;right=0;align=left;spacingLeft=6;perimeterSpacing=4;strokeColor=default;strokeWidth=0;" vertex="1" parent="3GKI9lWFmnvysXcDFJsr-44">
          <mxGeometry x="260" width="30.75" height="35" as="geometry">
            <mxRectangle width="30.75" height="35" as="alternateBounds" />
          </mxGeometry>
        </mxCell>
        <mxCell id="3GKI9lWFmnvysXcDFJsr-51" value="learn" style="edgeStyle=orthogonalEdgeStyle;rounded=0;orthogonalLoop=1;jettySize=auto;html=1;entryX=0;entryY=0.5;entryDx=0;entryDy=0;startArrow=ERoneToMany;startFill=0;endArrow=ERone;endFill=0;" parent="1" source="BaDLSpwHCjFPU6KFAHDN-98" target="3GKI9lWFmnvysXcDFJsr-41" edge="1">
          <mxGeometry relative="1" as="geometry" />
        </mxCell>
      </root>
    </mxGraphModel>
  </diagram>
</mxfile>
